<svg xmlns="http://www.w3.org/2000/svg" viewBox="0 0 1820 760">
  <defs>
    <style>
      .cls-1 {
        fill: none;
        stroke: #1da1f2;
        stroke-miterlimit: 10;
        stroke-width: 20px;
      }

      .cls-2 {
        fill: #1da1f2;
      }
    </style>
  </defs>
  <g id="Layer_8" data-name="Layer 8">
    <g>
      <path d="M192.1,264.8l29.1,8.7c-2,8.2-5,15-9.2,20.5a40.5,40.5,0,0,1-15.7,12.4c-6.2,2.7-14.1,4.1-23.7,4.1-11.7,0-21.2-1.7-28.6-5.1s-13.8-9.3-19.2-17.9-8.1-19.4-8.1-32.7c0-17.8,4.8-31.5,14.2-41s22.8-14.3,40.1-14.3c13.5,0,24.2,2.7,31.9,8.2s13.5,13.9,17.3,25.2l-29.3,6.5c-1.1-3.3-2.1-5.7-3.3-7.2a18.1,18.1,0,0,0-6.8-5.8,19.3,19.3,0,0,0-9-2.1c-7.5,0-13.3,3-17.3,9.1-3,4.5-4.5,11.5-4.5,21.1,0,11.9,1.8,20.1,5.4,24.5s8.7,6.6,15.3,6.6,11.1-1.8,14.3-5.3S190.6,271.5,192.1,264.8Z"/>
      <path d="M245.1,255.1c0-17.5,4.9-31.2,14.7-41s23.3-14.6,40.8-14.6,31.6,4.8,41.3,14.4,14.5,23,14.5,40.3c0,12.6-2.1,22.8-6.4,30.9a44.6,44.6,0,0,1-18.3,18.7c-7.9,4.5-17.9,6.7-29.8,6.7s-22.1-1.9-30.1-5.8-14.3-9.9-19.3-18.3S245.1,267.6,245.1,255.1Zm33.2.1c0,10.9,2,18.7,6.1,23.4s9.5,7.1,16.4,7.1,12.6-2.3,16.5-7,5.9-12.9,5.9-24.9c0-10.1-2-17.5-6.1-22.2s-9.6-7-16.6-7-12.1,2.4-16.1,7.1S278.3,244.3,278.3,255.2Z"/>
      <path d="M386.5,201.3h31l40.4,59.4V201.3h31.3V308.7H457.9l-40.2-59v59H386.5Z"/>
      <path d="M577.2,269.8V247.5h51.3v45.7c-9.9,6.7-18.5,11.3-26.1,13.7s-16.5,3.6-26.8,3.6c-12.8,0-23.2-2.1-31.2-6.5a45,45,0,0,1-18.7-19.4c-4.4-8.6-6.6-18.5-6.6-29.6s2.4-21.9,7.3-30.6a47.1,47.1,0,0,1,21.2-19.7c7.3-3.5,17.1-5.2,29.4-5.2s20.7,1.1,26.6,3.2a34.4,34.4,0,0,1,14.6,10c3.9,4.5,6.8,10.3,8.8,17.2l-32,5.7a17.9,17.9,0,0,0-6.7-9.3,21.6,21.6,0,0,0-12.1-3.2c-7.2,0-13,2.5-17.4,7.6s-6.4,13-6.4,23.9,2.1,20,6.5,24.9,10.5,7.5,18.3,7.5a34,34,0,0,0,10.6-1.6,59,59,0,0,0,11.6-5.5V269.8Z"/>
      <path d="M660.6,308.7V201.3h55.3c10.2,0,18.1.9,23.5,2.7a24.9,24.9,0,0,1,13.1,9.7,30,30,0,0,1,5,17.4,30.7,30.7,0,0,1-3.8,15.5,30.2,30.2,0,0,1-10.5,10.5,39.4,39.4,0,0,1-11.6,4.2,33.3,33.3,0,0,1,8.6,4,29.4,29.4,0,0,1,5.3,5.6,36.6,36.6,0,0,1,4.6,6.7l16.1,31.1H728.7L711,275.9c-2.3-4.3-4.3-7-6-8.3a14.4,14.4,0,0,0-8.1-2.5h-3v43.6Zm33.3-63.9h14a55.5,55.5,0,0,0,8.8-1.4,9.2,9.2,0,0,0,5.4-3.4,9.9,9.9,0,0,0,2.1-6.2c0-3.5-1.1-6.2-3.3-8s-6.3-2.8-12.4-2.8H693.9Z"/>
      <path d="M788.8,201.3h88.9v23H822v17h51.6v21.9H822v21.2h57.3v24.3H788.8Z"/>
      <path d="M903.4,273.2l31.5-2q1.1,7.7,4.2,11.7c3.4,4.4,8.3,6.5,14.7,6.5,4.7,0,8.3-1.1,10.9-3.3a9.9,9.9,0,0,0,3.9-7.7,10.1,10.1,0,0,0-3.7-7.5c-2.4-2.2-8.1-4.3-17-6.2-14.5-3.3-24.9-7.6-31.1-13.1a26,26,0,0,1-9.4-20.7,28,28,0,0,1,4.8-15.6c3.2-4.9,8-8.8,14.4-11.6s15.2-4.2,26.4-4.2c13.8,0,24.2,2.5,31.4,7.6s11.5,13.3,12.9,24.4L966,233.3c-.8-4.8-2.6-8.3-5.2-10.5s-6.4-3.3-11.1-3.3-6.7.8-8.7,2.4a7.9,7.9,0,0,0-2.9,6,5.9,5.9,0,0,0,2.4,4.6c1.6,1.4,5.3,2.8,11.1,4,14.5,3.1,24.9,6.3,31.2,9.5s10.8,7.1,13.7,11.9a29.6,29.6,0,0,1,4.3,15.9,34.1,34.1,0,0,1-5.7,19,36,36,0,0,1-16,13.2c-6.8,3-15.5,4.5-25.9,4.5-18.2,0-30.9-3.5-37.9-10.5S904.3,284,903.4,273.2Z"/>
      <path d="M1023.7,273.2l31.6-2c.6,5.1,2,9,4.1,11.7,3.5,4.4,8.3,6.5,14.7,6.5,4.7,0,8.4-1.1,10.9-3.3a9.9,9.9,0,0,0,3.9-7.7,9.7,9.7,0,0,0-3.7-7.5c-2.4-2.2-8.1-4.3-17-6.2-14.5-3.3-24.9-7.6-31.1-13.1a26,26,0,0,1-9.4-20.7,28,28,0,0,1,4.8-15.6c3.2-4.9,8-8.8,14.5-11.6s15.2-4.2,26.4-4.2c13.7,0,24.1,2.5,31.3,7.6s11.5,13.3,12.9,24.4l-31.3,1.8c-.8-4.8-2.6-8.3-5.2-10.5s-6.4-3.3-11-3.3-6.8.8-8.8,2.4a7.9,7.9,0,0,0-2.9,6,5.9,5.9,0,0,0,2.4,4.6c1.6,1.4,5.3,2.8,11.2,4,14.5,3.1,24.9,6.3,31.1,9.5s10.9,7.1,13.7,11.9a29.6,29.6,0,0,1,4.3,15.9,34.1,34.1,0,0,1-5.7,19,35.5,35.5,0,0,1-16,13.2q-10.2,4.5-25.8,4.5c-18.3,0-30.9-3.5-38-10.5S1024.6,284,1023.7,273.2Z"/>
      <path d="M1151.1,201.3h33.3V308.7h-33.3Z"/>
      <path d="M1216,255.1c0-17.5,4.9-31.2,14.7-41s23.3-14.6,40.8-14.6,31.6,4.8,41.3,14.4,14.5,23,14.5,40.3c0,12.6-2.2,22.8-6.4,30.9a44.6,44.6,0,0,1-18.3,18.7c-8,4.5-17.9,6.7-29.8,6.7s-22.2-1.9-30.1-5.8a44.6,44.6,0,0,1-19.3-18.3C1218.5,278.1,1216,267.6,1216,255.1Zm33.2.1q0,16.4,6,23.4c4.1,4.7,9.5,7.1,16.5,7.1s12.6-2.3,16.5-7,5.9-12.9,5.9-24.9c0-10.1-2.1-17.5-6.1-22.2s-9.6-7-16.6-7-12.1,2.4-16.1,7.1S1249.2,244.3,1249.2,255.2Z"/>
      <path d="M1357.4,201.3h30.9l40.5,59.4V201.3H1460V308.7h-31.2l-40.2-59v59h-31.2Z"/>
      <path d="M1558.6,291H1521l-5.3,17.7h-33.8l40.3-107.4h36.2l40.3,107.4H1564Zm-6.9-23.2-11.8-38.6-11.7,38.6Z"/>
      <path d="M1621.3,201.3h33.2v81h51.8v26.4h-85Z"/>
      <path d="M603.1,451.3h33.2v81h51.8v26.4h-85Z"/>
      <path d="M781.2,451.3h33.1v64a54,54,0,0,1-3,18,40.3,40.3,0,0,1-9.3,14.8,36.3,36.3,0,0,1-13.3,8.8c-6.4,2.4-14.2,3.6-23.2,3.6a133.2,133.2,0,0,1-17.1-1.1,45.9,45.9,0,0,1-15.5-4.3,41,41,0,0,1-11.4-9.3,33.1,33.1,0,0,1-7-12.4,61.9,61.9,0,0,1-3.1-18.1v-64h33.1v65.5c0,5.9,1.6,10.4,4.9,13.7s7.7,5,13.5,5,10.2-1.6,13.4-4.9,4.9-7.8,4.9-13.8Z"/>
      <path d="M848.5,451.3h31l40.4,59.4V451.3h31.3V558.7H919.9l-40.2-59v59H848.5Z"/>
      <path d="M1056.7,514.8l29.1,8.7a54.6,54.6,0,0,1-9.3,20.5,41,41,0,0,1-15.6,12.4c-6.2,2.7-14.1,4.1-23.8,4.1-11.6,0-21.2-1.7-28.6-5.1s-13.7-9.3-19.1-17.9-8.1-19.4-8.1-32.7c0-17.8,4.7-31.5,14.2-41s22.8-14.3,40.1-14.3c13.5,0,24.2,2.7,31.9,8.2s13.5,13.9,17.2,25.2l-29.3,6.5a24.7,24.7,0,0,0-3.2-7.2,18.1,18.1,0,0,0-6.8-5.8,19.3,19.3,0,0,0-9-2.1c-7.5,0-13.3,3-17.3,9.1-3,4.5-4.5,11.5-4.5,21.1,0,11.9,1.8,20.1,5.4,24.5s8.7,6.6,15.2,6.6,11.2-1.8,14.4-5.3S1055.2,521.5,1056.7,514.8Z"/>
      <path d="M1114,451.3h33.2v37.6h36.3V451.3h33.3V558.7h-33.3V515.3h-36.3v43.4H1114Z"/>
    </g>
    <g id="outline">
      <polyline class="cls-1" points="510 30 10 30 10 730 510 730"/>
      <polyline class="cls-1" points="1310 30 1810 30 1810 730 1310 730"/>
    </g>
    <g id="birbs">
      <g id="bot">
        <path id="twitter_logo" data-name="twitter logo" class="cls-2" d="M646.2,760c27.9,0,43.1-23.1,43.1-43.1V715a31.3,31.3,0,0,0,7.5-7.9,31.1,31.1,0,0,1-8.7,2.4,15.2,15.2,0,0,0,6.7-8.4,29.5,29.5,0,0,1-9.6,3.7A15.1,15.1,0,0,0,659,715.1a13.4,13.4,0,0,0,.4,3.5,42.9,42.9,0,0,1-31.2-15.8,14.9,14.9,0,0,0-2.1,7.6,15.1,15.1,0,0,0,6.8,12.6,15.8,15.8,0,0,1-6.9-1.9v.2a15.2,15.2,0,0,0,12.1,14.9,16.8,16.8,0,0,1-4,.5,13.3,13.3,0,0,1-2.8-.3,15,15,0,0,0,14.2,10.5,30.5,30.5,0,0,1-18.9,6.5,21.7,21.7,0,0,1-3.6-.2,42.9,42.9,0,0,0,23.2,6.8"/>
        <path id="twitter_logo-2" data-name="twitter logo" class="cls-2" d="M771.2,760c27.9,0,43.1-23.1,43.1-43.1V715a31.3,31.3,0,0,0,7.5-7.9,31.1,31.1,0,0,1-8.7,2.4,15.2,15.2,0,0,0,6.7-8.4,29.5,29.5,0,0,1-9.6,3.7A15.1,15.1,0,0,0,784,715.1a13.4,13.4,0,0,0,.4,3.5,42.9,42.9,0,0,1-31.2-15.8,14.9,14.9,0,0,0-2.1,7.6,15.1,15.1,0,0,0,6.8,12.6,15.8,15.8,0,0,1-6.9-1.9v.2a15.2,15.2,0,0,0,12.1,14.9,16.8,16.8,0,0,1-4,.5,13.3,13.3,0,0,1-2.8-.3,15,15,0,0,0,14.2,10.5,30.5,30.5,0,0,1-18.9,6.5,21.7,21.7,0,0,1-3.6-.2,42.9,42.9,0,0,0,23.2,6.8"/>
        <path id="twitter_logo-3" data-name="twitter logo" class="cls-2" d="M896.2,760c27.9,0,43.1-23.1,43.1-43.1V715a31.3,31.3,0,0,0,7.5-7.9,31.1,31.1,0,0,1-8.7,2.4,15.2,15.2,0,0,0,6.7-8.4,29.5,29.5,0,0,1-9.6,3.7A15.1,15.1,0,0,0,909,715.1a13.4,13.4,0,0,0,.4,3.5,42.9,42.9,0,0,1-31.2-15.8,14.9,14.9,0,0,0-2.1,7.6,15.1,15.1,0,0,0,6.8,12.6,15.8,15.8,0,0,1-6.9-1.9v.2a15.2,15.2,0,0,0,12.1,14.9,16.8,16.8,0,0,1-4,.5,13.3,13.3,0,0,1-2.8-.3,15,15,0,0,0,14.2,10.5,30.5,30.5,0,0,1-18.9,6.5,21.7,21.7,0,0,1-3.6-.2,42.9,42.9,0,0,0,23.2,6.8"/>
        <path id="twitter_logo-4" data-name="twitter logo" class="cls-2" d="M1021.2,760c27.9,0,43.1-23.1,43.1-43.1V715a31.3,31.3,0,0,0,7.5-7.9,31.1,31.1,0,0,1-8.7,2.4,15.2,15.2,0,0,0,6.7-8.4,29.5,29.5,0,0,1-9.6,3.7,15.1,15.1,0,0,0-26.2,10.3,13.4,13.4,0,0,0,.4,3.5,42.9,42.9,0,0,1-31.2-15.8,14.9,14.9,0,0,0-2.1,7.6,15.1,15.1,0,0,0,6.8,12.6,15.8,15.8,0,0,1-6.9-1.9v.2a15.2,15.2,0,0,0,12.1,14.9,16.8,16.8,0,0,1-4,.5,13.3,13.3,0,0,1-2.8-.3,15,15,0,0,0,14.2,10.5,30.5,30.5,0,0,1-18.9,6.5,21.7,21.7,0,0,1-3.6-.2,42.9,42.9,0,0,0,23.2,6.8"/>
        <path id="twitter_logo-5" data-name="twitter logo" class="cls-2" d="M1146.2,760c27.9,0,43.1-23.1,43.1-43.1V715a31.3,31.3,0,0,0,7.5-7.9,31.1,31.1,0,0,1-8.7,2.4,15.2,15.2,0,0,0,6.7-8.4,29.5,29.5,0,0,1-9.6,3.7,15.1,15.1,0,0,0-26.2,10.3,13.4,13.4,0,0,0,.4,3.5,42.9,42.9,0,0,1-31.2-15.8,14.9,14.9,0,0,0-2.1,7.6,15.1,15.1,0,0,0,6.8,12.6,15.8,15.8,0,0,1-6.9-1.9v.2a15.2,15.2,0,0,0,12.1,14.9,16.8,16.8,0,0,1-4,.5,13.3,13.3,0,0,1-2.8-.3,15,15,0,0,0,14.2,10.5,30.5,30.5,0,0,1-18.9,6.5,21.7,21.7,0,0,1-3.6-.2,42.9,42.9,0,0,0,23.2,6.8"/>
      </g>
      <g id="top">
        <path id="twitter_logo-6" data-name="twitter logo" class="cls-2" d="M646.3,60c27.8,0,43.1-23.1,43.1-43.1a12.1,12.1,0,0,0-.1-1.9,30,30,0,0,0,7.6-7.9,31.1,31.1,0,0,1-8.7,2.4,15.6,15.6,0,0,0,6.7-8.4,30,30,0,0,1-9.7,3.7,14.8,14.8,0,0,0-11-4.8A15.2,15.2,0,0,0,659,15.1a19.7,19.7,0,0,0,.4,3.5A43.1,43.1,0,0,1,628.2,2.8a14.9,14.9,0,0,0-2,7.6A15.3,15.3,0,0,0,632.9,23a15.3,15.3,0,0,1-6.8-1.9v.2a15.2,15.2,0,0,0,12.1,14.9,17.5,17.5,0,0,1-4,.5,12.7,12.7,0,0,1-2.8-.3,14.9,14.9,0,0,0,14.1,10.5,30.2,30.2,0,0,1-18.8,6.5,21.7,21.7,0,0,1-3.6-.2A42.9,42.9,0,0,0,646.3,60"/>
        <path id="twitter_logo-7" data-name="twitter logo" class="cls-2" d="M771.3,60c27.8,0,43.1-23.1,43.1-43.1a12.1,12.1,0,0,0-.1-1.9,30,30,0,0,0,7.6-7.9,31.1,31.1,0,0,1-8.7,2.4,15.6,15.6,0,0,0,6.7-8.4,30,30,0,0,1-9.7,3.7,14.8,14.8,0,0,0-11-4.8A15.2,15.2,0,0,0,784,15.1a19.7,19.7,0,0,0,.4,3.5A43.1,43.1,0,0,1,753.2,2.8a14.9,14.9,0,0,0-2,7.6A15.3,15.3,0,0,0,757.9,23a15.3,15.3,0,0,1-6.8-1.9v.2a15.2,15.2,0,0,0,12.1,14.9,17.5,17.5,0,0,1-4,.5,12.7,12.7,0,0,1-2.8-.3,14.9,14.9,0,0,0,14.1,10.5,30.2,30.2,0,0,1-18.8,6.5,21.7,21.7,0,0,1-3.6-.2A42.9,42.9,0,0,0,771.3,60"/>
        <path id="twitter_logo-8" data-name="twitter logo" class="cls-2" d="M896.3,60c27.8,0,43.1-23.1,43.1-43.1a12.1,12.1,0,0,0-.1-1.9,30,30,0,0,0,7.6-7.9,31.1,31.1,0,0,1-8.7,2.4,15.6,15.6,0,0,0,6.7-8.4,30,30,0,0,1-9.7,3.7,14.8,14.8,0,0,0-11-4.8A15.2,15.2,0,0,0,909,15.1a19.7,19.7,0,0,0,.4,3.5A43.1,43.1,0,0,1,878.2,2.8a14.9,14.9,0,0,0-2,7.6A15.3,15.3,0,0,0,882.9,23a15.3,15.3,0,0,1-6.8-1.9v.2a15.2,15.2,0,0,0,12.1,14.9,17.5,17.5,0,0,1-4,.5,12.7,12.7,0,0,1-2.8-.3,14.9,14.9,0,0,0,14.1,10.5,30.2,30.2,0,0,1-18.8,6.5,21.7,21.7,0,0,1-3.6-.2A42.9,42.9,0,0,0,896.3,60"/>
        <path id="twitter_logo-9" data-name="twitter logo" class="cls-2" d="M1021.3,60c27.8,0,43.1-23.1,43.1-43.1a12.1,12.1,0,0,0-.1-1.9,30,30,0,0,0,7.6-7.9,31.1,31.1,0,0,1-8.7,2.4,15.6,15.6,0,0,0,6.7-8.4,30,30,0,0,1-9.7,3.7,14.8,14.8,0,0,0-11-4.8A15.2,15.2,0,0,0,1034,15.1a19.7,19.7,0,0,0,.4,3.5,43.1,43.1,0,0,1-31.2-15.8,14.9,14.9,0,0,0-2,7.6,15.3,15.3,0,0,0,6.7,12.6,15.3,15.3,0,0,1-6.8-1.9v.2a15.2,15.2,0,0,0,12.1,14.9,17.5,17.5,0,0,1-4,.5,12.7,12.7,0,0,1-2.8-.3,14.9,14.9,0,0,0,14.1,10.5,30.2,30.2,0,0,1-18.8,6.5,21.7,21.7,0,0,1-3.6-.2,42.9,42.9,0,0,0,23.2,6.8"/>
        <path id="twitter_logo-10" data-name="twitter logo" class="cls-2" d="M1146.3,60c27.8,0,43.1-23.1,43.1-43.1a12.1,12.1,0,0,0-.1-1.9,30,30,0,0,0,7.6-7.9,31.1,31.1,0,0,1-8.7,2.4,15.6,15.6,0,0,0,6.7-8.4,30,30,0,0,1-9.7,3.7,14.8,14.8,0,0,0-11-4.8A15.2,15.2,0,0,0,1159,15.1a19.7,19.7,0,0,0,.4,3.5,43.1,43.1,0,0,1-31.2-15.8,14.9,14.9,0,0,0-2,7.6,15.3,15.3,0,0,0,6.7,12.6,15.3,15.3,0,0,1-6.8-1.9v.2a15.2,15.2,0,0,0,12.1,14.9,17.5,17.5,0,0,1-4,.5,12.7,12.7,0,0,1-2.8-.3,14.9,14.9,0,0,0,14.1,10.5,30.2,30.2,0,0,1-18.8,6.5,21.7,21.7,0,0,1-3.6-.2,42.9,42.9,0,0,0,23.2,6.8"/>
      </g>
    </g>
  </g>
</svg>
